<svg xmlns="http://www.w3.org/2000/svg" viewBox="0 0 480 320"><title>Клавиатура Quiet</title><ellipse cx="240" cy="247" rx="188" ry="22" fill="#cad8c8"/><g transform="rotate(-9 240 160)"><rect x="51" y="98" width="378" height="157" rx="16" fill="#96a99b"/><rect x="51" y="90" width="378" height="157" rx="16" fill="#dce4d8"/><rect x="61" y="104" width="359" height="133" rx="8" fill="#b8c6b5"/><rect x="70" y="115" width="21" height="19" rx="3" fill="#39795f"/>
<rect x="96" y="115" width="21" height="19" rx="3" fill="#fffdf6"/>
<rect x="122" y="115" width="21" height="19" rx="3" fill="#fffdf6"/>
<rect x="148" y="115" width="21" height="19" rx="3" fill="#fffdf6"/>
<rect x="174" y="115" width="21" height="19" rx="3" fill="#fffdf6"/>
<rect x="200" y="115" width="21" height="19" rx="3" fill="#fffdf6"/>
<rect x="226" y="115" width="21" height="19" rx="3" fill="#fffdf6"/>
<rect x="252" y="115" width="21" height="19" rx="3" fill="#fffdf6"/>
<rect x="278" y="115" width="21" height="19" rx="3" fill="#fffdf6"/>
<rect x="304" y="115" width="21" height="19" rx="3" fill="#fffdf6"/>
<rect x="330" y="115" width="21" height="19" rx="3" fill="#fffdf6"/>
<rect x="356" y="115" width="21" height="19" rx="3" fill="#fffdf6"/>
<rect x="382" y="115" width="21" height="19" rx="3" fill="#39795f"/>
<rect x="70" y="140" width="21" height="19" rx="3" fill="#39795f"/>
<rect x="96" y="140" width="21" height="19" rx="3" fill="#fffdf6"/>
<rect x="122" y="140" width="21" height="19" rx="3" fill="#fffdf6"/>
<rect x="148" y="140" width="21" height="19" rx="3" fill="#fffdf6"/>
<rect x="174" y="140" width="21" height="19" rx="3" fill="#fffdf6"/>
<rect x="200" y="140" width="21" height="19" rx="3" fill="#fffdf6"/>
<rect x="226" y="140" width="21" height="19" rx="3" fill="#fffdf6"/>
<rect x="252" y="140" width="21" height="19" rx="3" fill="#fffdf6"/>
<rect x="278" y="140" width="21" height="19" rx="3" fill="#fffdf6"/>
<rect x="304" y="140" width="21" height="19" rx="3" fill="#fffdf6"/>
<rect x="330" y="140" width="21" height="19" rx="3" fill="#fffdf6"/>
<rect x="356" y="140" width="21" height="19" rx="3" fill="#fffdf6"/>
<rect x="382" y="140" width="21" height="19" rx="3" fill="#39795f"/>
<rect x="70" y="165" width="21" height="19" rx="3" fill="#39795f"/>
<rect x="96" y="165" width="21" height="19" rx="3" fill="#fffdf6"/>
<rect x="122" y="165" width="21" height="19" rx="3" fill="#fffdf6"/>
<rect x="148" y="165" width="21" height="19" rx="3" fill="#fffdf6"/>
<rect x="174" y="165" width="21" height="19" rx="3" fill="#fffdf6"/>
<rect x="200" y="165" width="21" height="19" rx="3" fill="#fffdf6"/>
<rect x="226" y="165" width="21" height="19" rx="3" fill="#fffdf6"/>
<rect x="252" y="165" width="21" height="19" rx="3" fill="#fffdf6"/>
<rect x="278" y="165" width="21" height="19" rx="3" fill="#fffdf6"/>
<rect x="304" y="165" width="21" height="19" rx="3" fill="#fffdf6"/>
<rect x="330" y="165" width="21" height="19" rx="3" fill="#fffdf6"/>
<rect x="356" y="165" width="21" height="19" rx="3" fill="#fffdf6"/>
<rect x="382" y="165" width="21" height="19" rx="3" fill="#39795f"/>
<rect x="70" y="190" width="21" height="19" rx="3" fill="#39795f"/>
<rect x="96" y="190" width="21" height="19" rx="3" fill="#fffdf6"/>
<rect x="122" y="190" width="21" height="19" rx="3" fill="#fffdf6"/>
<rect x="148" y="190" width="21" height="19" rx="3" fill="#fffdf6"/>
<rect x="174" y="190" width="21" height="19" rx="3" fill="#fffdf6"/>
<rect x="200" y="190" width="21" height="19" rx="3" fill="#fffdf6"/>
<rect x="226" y="190" width="21" height="19" rx="3" fill="#fffdf6"/>
<rect x="252" y="190" width="21" height="19" rx="3" fill="#fffdf6"/>
<rect x="278" y="190" width="21" height="19" rx="3" fill="#fffdf6"/>
<rect x="304" y="190" width="21" height="19" rx="3" fill="#fffdf6"/>
<rect x="330" y="190" width="21" height="19" rx="3" fill="#fffdf6"/>
<rect x="356" y="190" width="21" height="19" rx="3" fill="#fffdf6"/>
<rect x="382" y="190" width="21" height="19" rx="3" fill="#39795f"/>
<rect x="70" y="215" width="21" height="19" rx="3" fill="#39795f"/>
<rect x="96" y="215" width="21" height="19" rx="3" fill="#fffdf6"/>
<rect x="122" y="215" width="21" height="19" rx="3" fill="#fffdf6"/>
<rect x="278" y="215" width="21" height="19" rx="3" fill="#fffdf6"/>
<rect x="304" y="215" width="21" height="19" rx="3" fill="#fffdf6"/>
<rect x="330" y="215" width="21" height="19" rx="3" fill="#fffdf6"/>
<rect x="356" y="215" width="21" height="19" rx="3" fill="#fffdf6"/>
<rect x="382" y="215" width="21" height="19" rx="3" fill="#39795f"/>
<rect x="148" y="215" width="125" height="19" rx="3" fill="#fdfbf4"/><circle cx="404" cy="100" r="2" fill="#3b7960"/></g></svg>
